<svg width="256" height="256" viewBox="0 0 256 256" fill="none"
  xmlns="http://www.w3.org/2000/svg">
  <defs>
    <linearGradient id="g" x1="0" y1="0" x2="1" y2="1">
      <stop offset="0%" stop-color="#6366F1"/>
      <stop offset="100%" stop-color="#A855F7"/>
    </linearGradient>
  </defs>

  <rect x="16" y="16" width="224" height="224" rx="48" fill="url(#g)"/>

  <!-- Chat bubble -->
  <path
    d="M72 80h112a24 24 0 0 1 24 24v48a24 24 0 0 1-24 24H116l-28 20v-20H72a24 24 0 0 1-24-24v-48a24 24 0 0 1 24-24z"
    fill="white"
    opacity="0.95"
  />

  <!-- Sparkles -->
  <path d="M128 98l6 14 14 6-14 6-6 14-6-14-14-6 14-6 6-14z" fill="#6366F1"/>
</svg>
